# xmcd
#
# Track frame offsets: 
#        183
#        26240
#        47078
#        68420
#        88895
#        106685
#        132555
#        150815
#        168583
#        188185
#        205598
#
# Disc length: 3024 seconds
#
# Revision: 10
# Processed by: cddbd v1.5.2PL0 Copyright (c) Steve Scherf et al.
# Submitted via: ExactAudioCopy v1.3
#
DISCID=8a0bce0b
DTITLE=Steve Stevens - Atomic Playboys
DYEAR=1989
DGENRE=Rock
TTITLE0=Atomic Playboys
TTITLE1=Power Of Suggestion
TTITLE2=Action
TTITLE3=Desperate Heart
TTITLE4=Soul On Ice
TTITLE5=Crackdown
TTITLE6=Pet The Hot Kitty
TTITLE7=Evening Eye
TTITLE8=Woman Of 1,000 Years
TTITLE9=Run Across Desert Sands [instrumental]
TTITLE10=Slipping Into Fiction
EXTD=more info YEAR: 1989 ID3G: 17
EXTT0=
EXTT1=
EXTT2=
EXTT3=
EXTT4=
EXTT5=
EXTT6=
EXTT7=
EXTT8=
EXTT9=
EXTT10=
PLAYORDER=
